<?xml version="1.0" encoding="iso-8859-1"?>
<!-- Generator: Adobe Illustrator 18.0.0, SVG Export Plug-In . SVG Version: 6.00 Build 0)  -->
<!DOCTYPE svg PUBLIC "-//W3C//DTD SVG 1.1//EN" "http://www.w3.org/Graphics/SVG/1.1/DTD/svg11.dtd">
<svg version="1.1" id="Capa_1" xmlns="http://www.w3.org/2000/svg" xmlns:xlink="http://www.w3.org/1999/xlink" x="0px" y="0px"
	 viewBox="0 0 296.124 296.124" style="enable-background:new 0 0 296.124 296.124;" xml:space="preserve">
<path d="M288.491,88.205L156.224,2.416c-4.965-3.221-11.359-3.221-16.324,0L7.633,88.205c-6.951,4.509-8.931,13.797-4.423,20.747
	c4.51,6.952,13.8,8.929,20.747,4.423l8.294-5.379V281.08c0,8.284,6.716,15,15,15v0.045h136.933c4.462,0,8.079-3.617,8.079-8.079
	v-48.912c0-4.462-3.617-8.079-8.079-8.079h-43.011V175.5c0-4.462-3.617-8.079-8.079-8.079H100.04v-55.533
	c0-4.462-3.617-8.079-8.079-8.079h-29.71V88.537l85.81-55.657l85.811,55.657V281.08c0,8.284,6.716,15,15,15c8.284,0,15-6.716,15-15
	V107.995l8.294,5.379c2.521,1.636,5.351,2.417,8.148,2.417c4.912-0.001,9.725-2.411,12.599-6.84
	C297.421,102.001,295.442,92.713,288.491,88.205z"/>
<g>
</g>
<g>
</g>
<g>
</g>
<g>
</g>
<g>
</g>
<g>
</g>
<g>
</g>
<g>
</g>
<g>
</g>
<g>
</g>
<g>
</g>
<g>
</g>
<g>
</g>
<g>
</g>
<g>
</g>
</svg>
