<?xml version="1.0" encoding="UTF-8"?>
<svg width="50" height="50" version="1.1" viewBox="100 150 400 400" xmlns="http://www.w3.org/2000/svg" xmlnsCc="http://creativecommons.org/ns#" xmlnsDc="http://purl.org/dc/elements/1.1/" xmlnsRdf="http://www.w3.org/1999/02/22-rdf-syntax-ns#">
<metadata>
<rdfRDF>
<ccWork rdfAbout="">
<dcFormat>image/svg+xml</dcFormat>
<dcType rdfResource="http://purl.org/dc/dcmitype/StillImage"/>
</ccWork>
</rdfRDF>
</metadata>
<path d="m397.04 158.19-7.3574 4.3535-6.3906 4.1367-17.588 11.926-15.342 11.258-12.451 9.1777-27.316 22.645-14.398 14.484-8.1504 10.125v0.81836l6.2676-5.1016 14.168-8.5625 5.9961-3.25 8.0586-3.7695 7.7441-2.6582 5.2188-1.0684 0.50391 0.41992-4.9375 9.9258-1.4375 4.5469-1.4356 4.5449 0.04102 10.455 1.3887 4.6289 1.3867 4.627 4.3555 7.75 6.7988 8.2812 6.9375 5.9902-0.29101 0.10156-12.535 6.9766-9.2637 6.123-10.824 9.1641-9.9316 10.002-6.6406 7.7285-5.4023 6.8184-9.832 13.639-7.3516 11.137h-8.9453l-1.8066-2.9551-4.1641-6.3633-6.4238-9.5469-7.5234-10.002-8.041-9.5469-5.9258-6.1894-10.672-9.7207-8.2324-6.2617-8.7207-5.6445-9.5996-4.8594-0.61328-0.82617 5.9336-5.1387 4.6172-4.7363 5.4844-7.9512 3.1699-6.6562 1.6309-8.3848 0.0039-7.3828-0.80078-3.8086-0.80078-3.8105-3.2148-7.2734-2.8125-5.2539v-0.52929l1.9473 0.30273 1.9453 0.30469 8.3691 2.7871 7.3516 3.0801 13.783 7.7754 8.8398 5.5898 5.7227 4.4863v-0.66016l-2.0273-2.5762-2.0254-2.5781-5.4356-6.3652-11.422-11.363-6.5781-5.9102-18.018-15.006-11.443-8.7109-15.805-11.771-16.35-11.4-7.6289-4.9277-11.924-7.4883-0.41602 0.34765 14.549 18.043 8.2324 10.91 3.2949 4.5449 5.1348 7.5606 7.8555 13.352 2.334 4.8984 2.334 4.8965 3.6894 9.2988 2.8809 9.9824 0.30274 4.8008 0.30468 4.8027-1.2637 6.0469-3.1855 6.5293-4.0606 5.1133-6.6289 5.7793-6.5391 4.3301-13.74 7.6875 8.291 2.1367 9.0879 3.0781 6.1699 2.7812 7.6309 4.1113 9.2461 6.0098 13.098 10.918 8.8555 9.5391 10.26 12.729 5.8926 8.1816 12.09 20.002 6.6875 13.639 3.1621 6.8184 6.3398 16.365 0.15039 0.10156h-10.91v1.7832h1.8223c1.5986 0 3.0376 0.47486 4.3164 1.4258 1.151 0.95093 1.7266 2.1096 1.7266 3.4766v39.852c0 1.1887-0.5756 2.1992-1.7266 3.0312-1.2788 0.77263-2.7178 1.1582-4.3164 1.1582h-1.8223v1.6035 0.08984h24.553v-1.6934h-1.7246c-1.6625 0-3.1015-0.38557-4.3164-1.1582-1.151-0.83206-1.7266-1.8426-1.7266-3.0312v-39.852c0-1.367 0.5756-2.5256 1.7266-3.4766 1.2149-0.95092 2.6539-1.4258 4.3164-1.4258h1.7246v-1.7832h-9.7969l1.9805-5.5547 4.3438-10.91 3.7363-8.1836 2.5039-5 2.502-5 10.717-18.184 7.752-11.365 6.1621-8.1836 8.1074-9.0918 8.9414-9.0918 11.311-9.1055 8.4922-5.293 6.9199-3.5078 9.6562-4.1074 12.891-3.5898 0.27734-0.23047 0.27539-0.23047-16.168-8.8516-9.1074-7.3613-4.793-5.5742-3.6562-6.6992-1.2441-5.9844 0.0039-3.373 0.00195-3.3711 0.81446-4.5059 0.81445-4.5059 0.89648-2.541 0.89454-2.541 1.8066-4.5449 1.8047-4.5469 3.1504-6.8184 4.9766-9.0918 4.2461-6.8184 6.8047-10.002 5.6328-7.7285 18.834-23.51v-0.43554zm-73.936 125.09-5.9024 1.7324-7.1797 2.7578-6.9883 3.416-5.1758 4.0371-0.5 1.6426-0.50196 1.6445-0.36133 1.4766-0.35937 1.4785h2.0684l5.5156-1.3672 5.0723-2.3652 6-4.5723 8.6816-9.5723-0.18555-0.15429-0.18359-0.1543zm-100.54 0.375-0.25391 0.21289-0.25586 0.21289 6.5742 7.2774 8.8867 6.9746 5.293 2.2363 2.0449 0.40235 2.0469 0.40234 3.1133 0.0918-0.25196-0.56836-0.25-0.56836-0.90234-2.2871-0.90039-2.2871-3.3652-3.4062-6.3301-3.5859-9.0977-3.959-6.3516-1.1484zm-51.764 118.45c-3.7087 0-7.067 1.4854-10.072 4.457-2.8135 2.9716-4.2188 6.3908-4.2188 10.254v3.3867h-7.002v2.5859h7.002v27.369c0 1.1887-0.48032 2.1992-1.4394 3.0312-1.087 0.77263-2.3335 1.1582-3.7402 1.1582h-1.8223v1.6035 0.08984h22.348v-1.6934h-1.8223c-1.6625 0-3.1333-0.38557-4.4121-1.1582-1.087-0.83206-1.6309-1.8426-1.6309-3.0312v-27.369h10.07v-2.5859h-10.07v-11.322c0-1.1292 0.38308-2.1094 1.1504-2.9414s1.7279-1.248 2.8789-1.248c0.95913 0 1.886 0.23743 2.7812 0.71289 0.83125 0.5349 1.5656 1.2187 2.2051 2.0508 0.57548 0.95093 1.1828 1.6632 1.8223 2.1387 0.76731 0.65376 1.5037 0.98047 2.207 0.98047 0.8952 0 1.6614-0.32671 2.3008-0.98047 0.70337-0.5349 1.0566-1.2776 1.0566-2.2285 0-1.4264-0.99239-2.6744-2.9746-3.7441-1.7904-1.0104-3.9956-1.5156-6.6172-1.5156zm205.25 0.44531c-8.824 0-15.856 2.6156-21.1 7.8457-5.3072 5.2895-7.9609 12.244-7.9609 20.861 0 7.964 2.6537 14.354 7.9609 19.168 5.2433 4.7546 12.212 7.1309 20.908 7.1309 5.1793 0 9.7841-0.92125 13.812-2.7637 4.2841-1.8424 7.6087-4.4865 9.9746-7.9336l-1.8223-1.3379c-2.8135 2.615-6.011 4.6057-9.5918 5.9727-3.5168 1.367-7.034 2.0508-10.551 2.0508-6.2024 0-11.159-1.9906-14.867-5.9727-3.7726-4.1603-5.6582-9.5985-5.6582-16.314 0-7.548 1.8221-13.64 5.4668-18.275 3.5168-4.5763 8.2487-6.8652 14.195-6.8652 4.0284 0 7.7698 1.3088 11.223 3.9238 3.5168 2.615 6.1051 6.15 7.7676 10.607h2.3027l-0.76758-17.83h-2.7812c-0.12788 0.71319-0.54272 1.2489-1.2461 1.6055-0.63943 0.47546-1.4393 0.71289-2.3984 0.71289-0.51154 0-1.7898-0.41599-3.8359-1.248l-1.248-0.26758c-1.9822-0.7132-5.2433-1.0703-9.7832-1.0703zm-90.926 1.0703v1.7832h1.8223c0.76731 0 2.4941 1.4854 5.1797 4.457l0.86328 0.89257v37.264c0 1.7236-0.60736 3.2089-1.8223 4.457-1.2149 1.2481-2.6221 1.873-4.2207 1.873h-1.8223v1.6035 0.08984h19.854v-1.6934h-1.8223c-1.6625 0-3.1333-0.62495-4.4121-1.873-1.2149-1.2481-1.8223-2.7335-1.8223-4.457v-32.807l37.504 41.99h1.8223v-46.18c0-1.4858 0.54188-2.8231 1.6289-4.0117 1.2149-1.0698 2.6857-1.6055 4.4121-1.6055h1.7266v-1.7832h-19.182v1.7832h1.8223c1.5986 0 2.9086 0.53568 3.9316 1.6055 1.2149 1.1887 1.8223 2.5259 1.8223 4.0117v29.598l-32.514-36.998h-14.771zm-88.432 15.869c-5.2433 0-9.6873 1.7836-13.332 5.3496-3.7087 3.6254-5.5625 7.9334-5.5625 12.926 0 5.2895 1.8538 9.8065 5.5625 13.551 3.6447 3.6848 8.0252 5.5274 13.141 5.5274 5.3712 0 9.9422-1.8425 13.715-5.5274 3.5808-3.7443 5.3711-8.2612 5.3711-13.551 0-4.9924-1.7903-9.3004-5.3711-12.926-3.7726-3.566-8.2802-5.3496-13.523-5.3496zm23.979 0.71289v1.873c1.2149 0 2.4931 0.35516 3.8359 1.0684 1.2788 0.77263 2.4936 1.844 3.6445 3.2109l7.7695 11.143-9.7832 13.193c-0.70336 1.1292-1.5668 2.022-2.5898 2.6758-1.0231 0.65377-2.2378 0.98047-3.6445 0.98047v1.6035 0.08984h12.852v-1.6934h-1.8223c-0.31972 0-0.60752-0.11969-0.86329-0.35742-0.25576-0.29716-0.38281-0.59346-0.38281-0.89062 0-0.41603 0.06352-0.80356 0.19141-1.1602 0.12788-0.3566 0.3204-0.6833 0.57617-0.98047l7.4805-10.607 7.3848 10.607c0.38366 0.41603 0.67146 0.80356 0.86329 1.1602 0.19182 0.3566 0.28906 0.6833 0.28906 0.98047 0 0.29716-0.22428 0.59346-0.67188 0.89062-0.38365 0.23773-0.89573 0.35742-1.5352 0.35742h-1.7266v1.6934h16.785v-1.6934c-0.76731 0-1.6307-0.3267-2.5898-0.98047-0.95914-0.59433-1.9496-1.4871-2.9727-2.6758l-11.51-16.492 5.7539-7.8438c0.95914-1.367 2.0786-2.4383 3.3574-3.2109 1.2788-0.7132 2.6226-1.0684 4.0293-1.0684v-1.873h-12.854v1.873h1.7266c0.31971 0 0.57575 0.08732 0.76758 0.26562 0.19182 0.1783 0.2871 0.38727 0.2871 0.625 0 0.77263-0.38308 1.842-1.1504 3.209l-4.123 5.6172-3.6465-5.6172-0.95898-1.6035c-0.25577-0.41603-0.38281-0.68387-0.38281-0.80273 0-0.47547 0.22427-0.86299 0.67187-1.1602 0.4476-0.3566 0.95772-0.5332 1.5332-0.5332h1.7266v-1.873h-18.318zm-25.514 1.873c3.5808 0 6.6493 1.6639 9.207 4.9922 2.6216 3.3282 3.9336 7.3988 3.9336 12.213 0 4.1603-1.0242 7.6972-3.0703 10.609-1.8543 2.9716-4.2202 4.457-7.0977 4.457-3.4529 0-6.4897-1.7228-9.1113-5.1699-2.4938-3.566-3.7402-7.8171-3.7402-12.75 0-3.982 0.99044-7.3688 2.9727-10.162 1.8543-2.7934 4.1567-4.1894 6.9062-4.1894z"/>
</svg>
